<svg width="367" height="233" viewBox="0 0 367 233" fill="none" xmlns="http://www.w3.org/2000/svg">
<rect width="367" height="233" rx="16" fill="#2c2c2c"/>
<path d="M40.4882 67.3693C39.9451 68.7898 39.0051 69.5 37.6682 69.5H25.8242C25.4482 69.5 25.114 69.3747 24.8216 69.124C24.5709 68.8316 24.4456 68.4973 24.4456 68.1213L24.5082 67.7453L38.1696 27.7013C38.3367 27.1582 38.65 26.6778 39.1096 26.26C39.5691 25.8422 40.1958 25.6333 40.9896 25.6333H58.4109C59.2047 25.6333 59.8314 25.8422 60.2909 26.26C60.7505 26.6778 61.0638 27.1582 61.2309 27.7013L74.8922 67.7453L74.9549 68.1213C74.9549 68.4973 74.8087 68.8316 74.5162 69.124C74.2656 69.3747 73.9522 69.5 73.5762 69.5H61.7322C60.3954 69.5 59.4554 68.7898 58.9122 67.3693L57.3456 62.9827H42.0549L40.4882 67.3693ZM49.7002 37.728L45.2509 50.7627H54.1496L49.7002 37.728Z" fill="#ee7828"/>
<path d="M141.391 67.5573C141.474 67.7244 141.516 67.9124 141.516 68.1213C141.516 68.4973 141.37 68.8316 141.078 69.124C140.827 69.3747 140.514 69.5 140.138 69.5H125.912C125.327 69.5 124.784 69.3538 124.283 69.0613C123.823 68.7689 123.489 68.3929 123.28 67.9333L117.766 55.5253H112.502V67.808C112.502 68.2676 112.334 68.6644 112 68.9987C111.666 69.3329 111.269 69.5 110.81 69.5H97.2736C96.814 69.5 96.4171 69.3329 96.0829 68.9987C95.7487 68.6644 95.5816 68.2676 95.5816 67.808V27.3253C95.5816 26.8658 95.7487 26.4689 96.0829 26.1347C96.4171 25.8004 96.814 25.6333 97.2736 25.6333H121.651C125.411 25.6333 128.69 26.2391 131.49 27.4507C134.33 28.6622 136.503 30.4169 138.007 32.7147C139.511 35.0124 140.263 37.7071 140.263 40.7987C140.263 46.4804 138.07 50.5956 133.683 53.144L141.391 67.5573ZM120.335 43.932C121.254 43.932 121.964 43.6396 122.466 43.0547C122.967 42.428 123.218 41.6551 123.218 40.736C123.218 39.8169 122.967 39.0231 122.466 38.3547C122.006 37.6444 121.296 37.2893 120.335 37.2893H112.502V43.932H120.335Z" fill="#c5baaa"/>
<path d="M191.722 27.3253C192.348 26.1973 193.246 25.6333 194.416 25.6333H205.884C206.344 25.6333 206.741 25.8004 207.075 26.1347C207.409 26.4689 207.576 26.8658 207.576 27.3253V67.808C207.576 68.2676 207.409 68.6644 207.075 68.9987C206.741 69.3329 206.344 69.5 205.884 69.5H194.542C194.082 69.5 193.685 69.3329 193.351 68.9987C193.017 68.6644 192.85 68.2676 192.85 67.808V48.3813L188.275 57.4053C188.15 57.6978 187.857 58.032 187.398 58.408C186.938 58.784 186.353 58.972 185.643 58.972H181.382C180.671 58.972 180.086 58.784 179.627 58.408C179.167 58.032 178.875 57.6978 178.75 57.4053L174.175 48.3813V67.808C174.175 68.2676 174.008 68.6644 173.674 68.9987C173.339 69.3329 172.942 69.5 172.483 69.5H161.14C160.681 69.5 160.284 69.3329 159.95 68.9987C159.615 68.6644 159.448 68.2676 159.448 67.808V27.3253C159.448 26.8658 159.615 26.4689 159.95 26.1347C160.284 25.8004 160.681 25.6333 161.14 25.6333H172.608C173.778 25.6333 174.676 26.1973 175.303 27.3253L183.512 42.3653L191.722 27.3253Z" fill="#c5baaa"/>
<path d="M241.488 67.3693C240.945 68.7898 240.005 69.5 238.668 69.5H226.824C226.448 69.5 226.114 69.3747 225.822 69.124C225.571 68.8316 225.446 68.4973 225.446 68.1213L225.508 67.7453L239.17 27.7013C239.337 27.1582 239.65 26.6778 240.11 26.26C240.569 25.8422 241.196 25.6333 241.99 25.6333H259.411C260.205 25.6333 260.831 25.8422 261.291 26.26C261.75 26.6778 262.064 27.1582 262.231 27.7013L275.892 67.7453L275.955 68.1213C275.955 68.4973 275.809 68.8316 275.516 69.124C275.266 69.3747 274.952 69.5 274.576 69.5H262.732C261.395 69.5 260.455 68.7898 259.912 67.3693L258.346 62.9827H243.055L241.488 67.3693ZM250.7 37.728L246.251 50.7627H255.15L250.7 37.728Z" fill="#c5baaa"/>
<path d="M337.127 25.6333C337.586 25.6333 337.983 25.8004 338.318 26.1347C338.652 26.4689 338.819 26.8658 338.819 27.3253V67.808C338.819 68.2676 338.652 68.6644 338.318 68.9987C337.983 69.3329 337.586 69.5 337.127 69.5H327.038C326.035 69.5 325.199 69.0613 324.531 68.184L310.87 50.7627V67.808C310.87 68.2676 310.702 68.6644 310.368 68.9987C310.034 69.3329 309.637 69.5 309.178 69.5H297.522C297.062 69.5 296.665 69.3329 296.331 68.9987C295.997 68.6644 295.83 68.2676 295.83 67.808V27.3253C295.83 26.8658 295.997 26.4689 296.331 26.1347C296.665 25.8004 297.062 25.6333 297.522 25.6333H307.674C308.676 25.6333 309.491 26.0511 310.118 26.8867L323.779 45.7493V27.3253C323.779 26.8658 323.946 26.4689 324.28 26.1347C324.614 25.8004 325.011 25.6333 325.471 25.6333H337.127Z" fill="#c5baaa"/>
<path d="M55.9042 92.6333C59.8314 92.6333 63.2571 93.3018 66.1816 94.6387C69.106 95.9756 71.3411 97.7929 72.8869 100.091C74.4327 102.388 75.2056 104.958 75.2056 107.799C75.2056 112.478 73.7434 116.154 70.8189 118.828C67.8945 121.46 62.9229 122.776 55.9042 122.776H47.6322V134.808C47.6322 135.268 47.4651 135.664 47.1309 135.999C46.7967 136.333 46.3998 136.5 45.9402 136.5H32.4669C32.0074 136.5 31.6105 136.333 31.2762 135.999C30.942 135.664 30.7749 135.268 30.7749 134.808V94.3253C30.7749 93.8658 30.942 93.4689 31.2762 93.1347C31.6105 92.8004 32.0074 92.6333 32.4669 92.6333H55.9042ZM55.6536 111.183C56.6562 111.183 57.45 110.89 58.0349 110.305C58.6198 109.679 58.9122 108.864 58.9122 107.861C58.9122 106.817 58.6198 105.96 58.0349 105.292C57.45 104.624 56.6562 104.289 55.6536 104.289H47.6949V111.183H55.6536Z" fill="#ee7828"/>
<path d="M139.824 118.389C139.824 124.781 137.694 129.502 133.432 132.552C129.213 135.602 123.573 137.127 116.512 137.127C109.452 137.127 103.791 135.602 99.5296 132.552C95.31 129.502 93.2002 124.74 93.2002 118.264V110.869C93.2002 106.608 94.2029 103.078 96.2082 100.279C98.2554 97.4378 101.034 95.3489 104.543 94.012C108.052 92.6751 112.042 92.0067 116.512 92.0067C120.982 92.0067 124.951 92.6751 128.419 94.012C131.928 95.3489 134.706 97.4169 136.754 100.216C138.801 103.015 139.824 106.524 139.824 110.744V118.389ZM110.12 119.58C110.12 121.293 110.684 122.609 111.812 123.528C112.982 124.447 114.549 124.907 116.512 124.907C118.476 124.907 120.022 124.447 121.15 123.528C122.319 122.567 122.904 121.23 122.904 119.517V109.616C122.904 107.903 122.319 106.587 121.15 105.668C120.022 104.707 118.476 104.227 116.512 104.227C114.549 104.227 112.982 104.686 111.812 105.605C110.684 106.524 110.12 107.84 110.12 109.553V119.58Z" fill="#c5baaa"/>
<path d="M208.391 134.557C208.474 134.724 208.516 134.912 208.516 135.121C208.516 135.497 208.37 135.832 208.078 136.124C207.827 136.375 207.514 136.5 207.138 136.5H192.912C192.327 136.5 191.784 136.354 191.283 136.061C190.823 135.769 190.489 135.393 190.28 134.933L184.766 122.525H179.502V134.808C179.502 135.268 179.334 135.664 179 135.999C178.666 136.333 178.269 136.5 177.81 136.5H164.274C163.814 136.5 163.417 136.333 163.083 135.999C162.749 135.664 162.582 135.268 162.582 134.808V94.3253C162.582 93.8658 162.749 93.4689 163.083 93.1347C163.417 92.8004 163.814 92.6333 164.274 92.6333H188.651C192.411 92.6333 195.69 93.2391 198.49 94.4507C201.33 95.6622 203.503 97.4169 205.007 99.7147C206.511 102.012 207.263 104.707 207.263 107.799C207.263 113.48 205.07 117.596 200.683 120.144L208.391 134.557ZM187.335 110.932C188.254 110.932 188.964 110.64 189.466 110.055C189.967 109.428 190.218 108.655 190.218 107.736C190.218 106.817 189.967 106.023 189.466 105.355C189.006 104.644 188.296 104.289 187.335 104.289H179.502V110.932H187.335Z" fill="#c5baaa"/>
<path d="M272.132 92.6333C272.592 92.6333 272.989 92.8004 273.323 93.1347C273.657 93.4689 273.824 93.8658 273.824 94.3253V104.415C273.824 104.874 273.657 105.271 273.323 105.605C272.989 105.94 272.592 106.107 272.132 106.107H258.659V134.808C258.659 135.268 258.492 135.664 258.158 135.999C257.823 136.333 257.426 136.5 256.967 136.5H244.058C243.598 136.5 243.201 136.333 242.867 135.999C242.533 135.664 242.366 135.268 242.366 134.808V106.107H228.892C228.433 106.107 228.036 105.94 227.702 105.605C227.367 105.271 227.2 104.874 227.2 104.415V94.3253C227.2 93.8658 227.367 93.4689 227.702 93.1347C228.036 92.8004 228.433 92.6333 228.892 92.6333H272.132Z" fill="#c5baaa"/>
<path d="M329.544 109.553C330.004 109.553 330.401 109.72 330.735 110.055C331.069 110.389 331.236 110.786 331.236 111.245V120.144C331.236 120.604 331.069 121 330.735 121.335C330.401 121.669 330.004 121.836 329.544 121.836H305.543C305.083 121.836 304.686 121.669 304.352 121.335C304.018 121 303.851 120.604 303.851 120.144V111.245C303.851 110.786 304.018 110.389 304.352 110.055C304.686 109.72 305.083 109.553 305.543 109.553H329.544Z" fill="#c5baaa"/>
<path d="M70.6936 159.633C71.1531 159.633 71.55 159.8 71.8842 160.135C72.2185 160.469 72.3856 160.866 72.3856 161.325V170.851C72.3856 171.31 72.2185 171.707 71.8842 172.041C71.55 172.376 71.1531 172.543 70.6936 172.543H46.0656V176.553H66.6202C67.0798 176.553 67.4767 176.72 67.8109 177.055C68.1451 177.389 68.3122 177.786 68.3122 178.245V187.708C68.3122 188.168 68.1451 188.564 67.8109 188.899C67.4767 189.233 67.0798 189.4 66.6202 189.4H46.0656V201.808C46.0656 202.268 45.8985 202.664 45.5642 202.999C45.23 203.333 44.8331 203.5 44.3736 203.5H30.8376C30.378 203.5 29.9811 203.333 29.6469 202.999C29.3127 202.664 29.1456 202.268 29.1456 201.808V161.325C29.1456 160.866 29.3127 160.469 29.6469 160.135C29.9811 159.8 30.378 159.633 30.8376 159.633H70.6936Z" fill="#c5baaa"/>
<path d="M139.824 185.389C139.824 191.781 137.694 196.502 133.432 199.552C129.213 202.602 123.573 204.127 116.512 204.127C109.452 204.127 103.791 202.602 99.5296 199.552C95.31 196.502 93.2002 191.74 93.2002 185.264V177.869C93.2002 173.608 94.2029 170.078 96.2082 167.279C98.2554 164.438 101.034 162.349 104.543 161.012C108.052 159.675 112.042 159.007 116.512 159.007C120.982 159.007 124.951 159.675 128.419 161.012C131.928 162.349 134.706 164.417 136.754 167.216C138.801 170.015 139.824 173.524 139.824 177.744V185.389ZM110.12 186.58C110.12 188.293 110.684 189.609 111.812 190.528C112.982 191.447 114.549 191.907 116.512 191.907C118.476 191.907 120.022 191.447 121.15 190.528C122.319 189.567 122.904 188.23 122.904 186.517V176.616C122.904 174.903 122.319 173.587 121.15 172.668C120.022 171.707 118.476 171.227 116.512 171.227C114.549 171.227 112.982 171.686 111.812 172.605C110.684 173.524 110.12 174.84 110.12 176.553V186.58Z" fill="#c5baaa"/>
<path d="M203.942 190.653C204.401 190.653 204.798 190.82 205.132 191.155C205.466 191.489 205.634 191.886 205.634 192.345V201.808C205.634 202.268 205.466 202.664 205.132 202.999C204.798 203.333 204.401 203.5 203.942 203.5H167.344C166.885 203.5 166.488 203.333 166.154 202.999C165.819 202.664 165.652 202.268 165.652 201.808V161.325C165.652 160.866 165.819 160.469 166.154 160.135C166.488 159.8 166.885 159.633 167.344 159.633H180.88C181.34 159.633 181.737 159.8 182.071 160.135C182.405 160.469 182.572 160.866 182.572 161.325V190.653H203.942Z" fill="#c5baaa"/>
<path d="M259.035 190.653H270.378C270.837 190.653 271.234 190.82 271.568 191.155C271.902 191.489 272.07 191.886 272.07 192.345V201.808C272.07 202.268 271.902 202.664 271.568 202.999C271.234 203.333 270.837 203.5 270.378 203.5H230.647C230.187 203.5 229.79 203.333 229.456 202.999C229.122 202.664 228.955 202.268 228.955 201.808V192.345C228.955 191.886 229.122 191.489 229.456 191.155C229.79 190.82 230.187 190.653 230.647 190.653H242.115V172.48H230.647C230.187 172.48 229.79 172.313 229.456 171.979C229.122 171.644 228.955 171.248 228.955 170.788V161.325C228.955 160.866 229.122 160.469 229.456 160.135C229.79 159.8 230.187 159.633 230.647 159.633H270.378C270.837 159.633 271.234 159.8 271.568 160.135C271.902 160.469 272.07 160.866 272.07 161.325V170.788C272.07 171.248 271.902 171.644 271.568 171.979C271.234 172.313 270.837 172.48 270.378 172.48H259.035V190.653Z" fill="#c5baaa"/>
<path d="M340.824 185.389C340.824 191.781 338.694 196.502 334.432 199.552C330.213 202.602 324.573 204.127 317.512 204.127C310.452 204.127 304.791 202.602 300.53 199.552C296.31 196.502 294.2 191.74 294.2 185.264V177.869C294.2 173.608 295.203 170.078 297.208 167.279C299.255 164.438 302.034 162.349 305.543 161.012C309.052 159.675 313.042 159.007 317.512 159.007C321.982 159.007 325.951 159.675 329.419 161.012C332.928 162.349 335.706 164.417 337.754 167.216C339.801 170.015 340.824 173.524 340.824 177.744V185.389ZM311.12 186.58C311.12 188.293 311.684 189.609 312.812 190.528C313.982 191.447 315.549 191.907 317.512 191.907C319.476 191.907 321.022 191.447 322.15 190.528C323.319 189.567 323.904 188.23 323.904 186.517V176.616C323.904 174.903 323.319 173.587 322.15 172.668C321.022 171.707 319.476 171.227 317.512 171.227C315.549 171.227 313.982 171.686 312.812 172.605C311.684 173.524 311.12 174.84 311.12 176.553V186.58Z" fill="#c5baaa"/>
</svg>
